<?xml version="1.0" standalone="no"?>
<!DOCTYPE svg PUBLIC "-//W3C//DTD SVG 20010904//EN"
 "http://www.w3.org/TR/2001/REC-SVG-20010904/DTD/svg10.dtd">
<svg version="1.0" xmlns="http://www.w3.org/2000/svg"
 width="710.000000pt" height="598.000000pt" viewBox="0 0 710.000000 598.000000"
 preserveAspectRatio="xMidYMid meet">

<g transform="translate(0.000000,598.000000) scale(0.100000,-0.100000)"
fill="#000000" stroke="none">
<path d="M2423 5964 c-370 -44 -754 -189 -1073 -402 -648 -434 -1113 -1160
-1284 -2005 -51 -251 -60 -353 -60 -662 -1 -302 7 -392 55 -624 81 -398 253
-779 500 -1111 119 -160 363 -406 520 -523 405 -302 850 -480 1384 -553 95
-13 197 -18 380 -18 272 -1 335 7 553 65 581 154 1164 611 1589 1247 53 78 98
142 102 142 3 0 19 -55 35 -123 55 -236 163 -532 261 -713 180 -332 377 -521
631 -606 59 -20 89 -23 214 -23 126 0 154 3 213 24 86 29 201 106 263 174 209
231 336 650 351 1160 l6 197 -155 0 -155 0 -38 -86 c-81 -181 -220 -351 -331
-404 -60 -28 -145 -31 -225 -7 -168 51 -373 255 -555 553 -72 118 -214 400
-214 424 0 8 36 111 80 227 264 705 530 1515 659 2013 22 85 67 277 100 425
106 478 221 1014 221 1030 0 13 -68 15 -587 13 l-587 -3 -163 -720 c-90 -396
-176 -774 -191 -840 -33 -138 -22 -145 -103 64 -67 173 -188 414 -286 572
-406 648 -939 1020 -1573 1099 -114 14 -400 11 -537 -6z m601 -474 c197 -19
386 -89 565 -207 103 -68 301 -262 391 -382 272 -362 490 -878 631 -1496 38
-166 39 -226 10 -425 -149 -998 -472 -1799 -881 -2184 -250 -234 -512 -325
-857 -297 -417 35 -710 165 -961 425 -305 318 -481 797 -544 1481 -16 183 -16
739 0 920 123 1331 611 2089 1395 2164 128 12 139 12 251 1z"/>
</g>
</svg>
